<?xml version="1.0" encoding="UTF-8" standalone="no"?>
<svg
   width="90mm"
   height="90mm"
   viewBox="0 0 340.15748 340.15748"
   version="1.1"
   id="svg_logo_central"
   sodipodi:docname="icone.svg"
   inkscape:version="1.4.2 (f4327f4, 2025-05-13)"
   xmlns:inkscape="http://www.inkscape.org/namespaces/inkscape"
   xmlns:sodipodi="http://sodipodi.sourceforge.net/DTD/sodipodi-0.dtd"
   xmlns="http://www.w3.org/2000/svg"
   xmlns:svg="http://www.w3.org/2000/svg">
  <sodipodi:namedview
     id="namedview1"
     pagecolor="#ffffff"
     bordercolor="#000000"
     borderopacity="1"
     inkscape:showpageshadow="2"
     inkscape:pageopacity="0.0"
     inkscape:pagecheckerboard="true"
     inkscape:deskcolor="#d1d1d1"
     showguides="true"
     inkscape:document-units="mm"
     showborder="true"
     borderlayer="true"
     inkscape:zoom="2"
     inkscape:cx="121"
     inkscape:cy="188.25"
     inkscape:window-width="1920"
     inkscape:window-height="974"
     inkscape:window-x="-11"
     inkscape:window-y="-11"
     inkscape:window-maximized="1"
     inkscape:current-layer="g1" />
  <defs
     id="defs_logo">
    <linearGradient
       id="g-acento-p"
       x1="151.44542"
       y1="60.087654"
       x2="151.44542"
       y2="223.18272"
       gradientTransform="scale(0.85839508,1.1649647)"
       gradientUnits="userSpaceOnUse">
      <stop
         offset="0%"
         stop-color="#6AFF99"
         id="stop_p1" />
      <stop
         offset="100%"
         stop-color="#27A966"
         id="stop_p2" />
    </linearGradient>
    <linearGradient
       id="g-acento-c"
       x1="0"
       y1="0"
       x2="0"
       y2="1">
      <stop
         offset="0%"
         stop-color="#6AFF99"
         id="stop_c1" />
      <stop
         offset="100%"
         stop-color="#27A966"
         id="stop_c2" />
    </linearGradient>
    <clipPath
       id="clip-p-bars">
      <path
         d="m 140,70 h 58 c 40,0 72,32 72,72 0,40 -32,72 -72,72 h -32 v 36 c 0,6 -4,10 -10,10 h -16 c -6,0 -10,-4 -10,-10 V 80 c 0,-6 4,-10 10,-10 z"
         id="path_clip_p" />
    </clipPath>
  </defs>
  <rect
     x="18.897638"
     y="18.897638"
     width="302.36221"
     height="302.36221"
     rx="60.472446"
     ry="60.472446"
     fill="#2F2F2F"
     id="background_rect"
     style="fill:#1c1c1c;fill-opacity:1;stroke:#141414;stroke-width:15.11811065;stroke-linecap:round;stroke-dasharray:none;stroke-opacity:1;paint-order:stroke fill markers" />
  <g
     id="g1"
     transform="matrix(1.0258718,0,0,0.99461254,25.423456,-5.3709077)"
     style="stroke:none">
    <path
       d="m 140,70 h 58 c 40,0 72,32 72,72 0,40 -32,72 -72,72 h -32 v 36 c 0,6 -4,10 -10,10 h -16 c -6,0 -10,-4 -10,-10 V 80 c 0,-6 4,-10 10,-10 z"
       fill="url(#g-acento-p)"
       id="path_p_fill"
       style="fill:url(#g-acento-p);stroke:none;stroke-opacity:1" />
    <path
       fill="#3e3e3e"
       d="m 168,102 h 28 c 22,0 40,18 40,40 0,22 -18,40 -40,40 h -28 z"
       opacity="0.9"
       id="path_p_negative_space"
       style="stroke:none;fill:#333333;fill-opacity:1" />
  </g>
  <g
     clip-path="url(#clip-p-bars)"
     id="g_bars_p"
     transform="matrix(-0.94488192,0,0,0.92183602,416.97639,-33.753026)">
    <rect
       x="176"
       y="152"
       width="12"
       height="48"
       fill="#a0ffc6"
       opacity="0.85"
       rx="4"
       id="rect_bar1" />
    <rect
       x="194"
       y="136"
       width="12"
       height="64"
       fill="#ceffe0"
       rx="4"
       id="rect_bar2" />
    <rect
       x="212"
       y="118"
       width="12"
       height="82"
       fill="#a0ffc6"
       opacity="0.7"
       rx="4"
       id="rect_bar3" />
  </g>
  <rect
     x="56.692913"
     y="283.46457"
     width="226.77165"
     height="10.078741"
     fill="#27a966"
     opacity="0.35"
     rx="4.1283131"
     id="rect_bottom_bar"
     style="stroke-width:1.27772;opacity:0.8" />
  <path
     d="m 139.32979,76.103265 c -49.18113,0 -89.683238,36.653475 -89.683238,82.636895 0,45.98345 40.502108,82.63693 89.683238,82.63693"
     fill="none"
     stroke="#555555"
     stroke-width="16.1097"
     stroke-linecap="round"
     stroke-linejoin="round"
     id="path_c_outline"
     sodipodi:nodetypes="csc"
     style="stroke-width:23.7026;stroke-linecap:square;stroke-dasharray:none;stroke:#585852;stroke-opacity:1;fill:none;fill-opacity:1" />
  <g
     clip-path="url(#clip-p-bars)"
     id="g3"
     transform="matrix(0.94488192,0,0,-0.92183602,-60.472443,334.98138)">
    <rect
       x="176"
       y="152"
       width="12"
       height="48"
       fill="#a0ffc6"
       opacity="0.85"
       rx="4"
       id="rect1" />
    <rect
       x="194"
       y="136"
       width="12"
       height="64"
       fill="#ceffe0"
       rx="4"
       id="rect2" />
    <rect
       x="212"
       y="118"
       width="12"
       height="82"
       fill="#a0ffc6"
       opacity="0.7"
       rx="4"
       id="rect3" />
  </g>
</svg>
